<svg xmlns="http://www.w3.org/2000/svg" viewBox="0 0 800 600">
    <!-- Background -->
    <rect width="800" height="600" fill="#f8f9fa"/>
    
    <!-- Title -->
    <text x="400" y="40" font-family="Arial" font-size="24" fill="#333" text-anchor="middle" font-weight="bold">OmnitrAIce Command Flow</text>
    
    <!-- User Input Box -->
    <rect x="300" y="70" width="200" height="60" fill="#fff" stroke="#28a745" stroke-width="2" rx="10"/>
    <text x="400" y="105" font-family="Arial" font-size="16" fill="#28a745" text-anchor="middle">User Input</text>
    
    <!-- Arrow Down -->
    <path d="M400 130 L400 170" stroke="#333" stroke-width="2" marker-end="url(#arrowhead)"/>
    
    <!-- Language Model Box -->
    <rect x="250" y="170" width="300" height="60" fill="#fff" stroke="#007bff" stroke-width="2" rx="10"/>
    <text x="400" y="205" font-family="Arial" font-size="16" fill="#007bff" text-anchor="middle">DeepSeek Language Model</text>
    
    <!-- Arrow Down -->
    <path d="M400 230 L400 270" stroke="#333" stroke-width="2" marker-end="url(#arrowhead)"/>
    
    <!-- Command Parser Box -->
    <rect x="275" y="270" width="250" height="60" fill="#fff" stroke="#dc3545" stroke-width="2" rx="10"/>
    <text x="400" y="305" font-family="Arial" font-size="16" fill="#dc3545" text-anchor="middle">Command Parser</text>
    
    <!-- Arrow Down Split -->
    <path d="M400 330 L400 350 L200 400" stroke="#333" stroke-width="2" marker-end="url(#arrowhead)"/>
    <path d="M400 330 L400 350 L600 400" stroke="#333" stroke-width="2" marker-end="url(#arrowhead)"/>
    
    <!-- File Operations Box -->
    <rect x="100" y="400" width="200" height="150" fill="#fff" stroke="#17a2b8" stroke-width="2" rx="10"/>
    <text x="200" y="430" font-family="Arial" font-size="16" fill="#17a2b8" text-anchor="middle" font-weight="bold">File Operations</text>
    <text x="120" y="460" font-family="monospace" font-size="12" fill="#333">- create file/directory</text>
    <text x="120" y="480" font-family="monospace" font-size="12" fill="#333">- read/write/delete</text>
    <text x="120" y="500" font-family="monospace" font-size="12" fill="#333">- move/copy/list</text>
    <text x="120" y="520" font-family="monospace" font-size="12" fill="#333">- directory navigation</text>
    
    <!-- Code Generation Box -->
    <rect x="500" y="400" width="200" height="150" fill="#fff" stroke="#ffc107" stroke-width="2" rx="10"/>
    <text x="600" y="430" font-family="Arial" font-size="16" fill="#ffc107" text-anchor="middle" font-weight="bold">AI Code Generation</text>
    <text x="520" y="460" font-family="monospace" font-size="12" fill="#333">- multiple languages</text>
    <text x="520" y="480" font-family="monospace" font-size="12" fill="#333">- code cleaning</text>
    <text x="520" y="500" font-family="monospace" font-size="12" fill="#333">- auto-formatting</text>
    <text x="520" y="520" font-family="monospace" font-size="12" fill="#333">- documentation</text>
    
    <!-- Arrowhead Definition -->
    <defs>
        <marker id="arrowhead" markerWidth="10" markerHeight="7" refX="9" refY="3.5" orient="auto">
            <polygon points="0 0, 10 3.5, 0 7" fill="#333"/>
        </marker>
    </defs>
</svg>